<svg id="beceed24-aac6-4268-bacf-bb25956a9222" data-name="Layer 1" xmlns="http://www.w3.org/2000/svg" viewBox="0 0 71.1 71">
  <g>
    <path d="M174.68,84.06H170.1a1.94,1.94,0,0,1-1.94-1.94V72.58a1.94,1.94,0,0,0-1.94-1.94h-8.79a2,2,0,0,0-1.94,1.94v9.54a1.94,1.94,0,0,1-1.93,1.94h-4.29a4.45,4.45,0,0,0-3.34,1.34l-8.52,8.13a35.52,35.52,0,0,0,49.05-.07L178,85.4A4.33,4.33,0,0,0,174.68,84.06Z" transform="translate(-126.35 -32.32)" style="fill: #ef7d00"/>
    <path d="M144,79V64a3,3,0,0,0-1.72-2.84l-13.21-7a35.59,35.59,0,0,0,5.26,36l8.26-7.89A4.25,4.25,0,0,0,144,79Z" transform="translate(-126.35 -32.32)" style="fill: #ef7d00"/>
    <path d="M165.78,50.65,176,57.08a3.32,3.32,0,0,0,3.35.13l13.42-7.1a35.5,35.5,0,0,0-28.59-17.79V47.68A3.45,3.45,0,0,0,165.78,50.65Z" transform="translate(-126.35 -32.32)" style="fill: #ef7d00"/>
    <path d="M147.85,57.05,158,50.62a3.33,3.33,0,0,0,1.63-3V32.32a35.54,35.54,0,0,0-28.5,17.76l13.42,7.11A3.35,3.35,0,0,0,147.85,57.05Z" transform="translate(-126.35 -32.32)" style="fill: #ef7d00"/>
    <path d="M194.75,54.19l-13.21,7A3.14,3.14,0,0,0,179.82,64V78.89a4.43,4.43,0,0,0,1.4,3.27l8.33,8a35.59,35.59,0,0,0,5.2-35.92Z" transform="translate(-126.35 -32.32)" style="fill: #ef7d00"/>
  </g>
</svg>
